REM DIRINDEX 1\2,1\3
REM DIRNAME cjc102,folder01,folder02
TITLE ""
FILE "CD1Track13.mp3" MP3
  TRACK 01 AUDIO
    TITLE "0:"
    INDEX 01 00:00:00
  TRACK 02 AUDIO
    TITLE "3:cjc102_0534"
    INDEX 01 00:00:25
  TRACK 03 AUDIO
    TITLE "0:"
    INDEX 01 00:01:21
  TRACK 04 AUDIO
    TITLE "2:cjc102_0535"
    INDEX 01 00:01:50
  TRACK 05 AUDIO
    TITLE "0:"
    INDEX 01 00:02:63
  TRACK 06 AUDIO
    TITLE "3:cjc102_0536"
    INDEX 01 00:03:51
  TRACK 07 AUDIO
    TITLE "0:"
    INDEX 01 00:04:33
  TRACK 08 AUDIO
    TITLE "2:cjc102_0537"
    INDEX 01 00:04:62
  TRACK 09 AUDIO
    TITLE "0:"
    INDEX 01 00:05:63
  TRACK 10 AUDIO
    TITLE "3:cjc102_0538"
    INDEX 01 00:06:51
  TRACK 11 AUDIO
    TITLE "0:"
    INDEX 01 00:07:49
  TRACK 12 AUDIO
    TITLE "2:cjc102_0539"
    INDEX 01 00:07:62
  TRACK 13 AUDIO
    TITLE "0:"
    INDEX 01 00:09:04
  TRACK 14 AUDIO
    TITLE "3:cjc102_0540"
    INDEX 01 00:09:63
  TRACK 15 AUDIO
    TITLE "0:"
    INDEX 01 00:10:51
  TRACK 16 AUDIO
    TITLE "2:cjc102_0541"
    INDEX 01 00:10:59
  TRACK 17 AUDIO
    TITLE "0:"
    INDEX 01 00:11:66
  TRACK 18 AUDIO
    TITLE "3:cjc102_0542"
    INDEX 01 00:12:71
  TRACK 19 AUDIO
    TITLE "0:"
    INDEX 01 00:13:51
  TRACK 20 AUDIO
    TITLE "2:cjc102_0543"
    INDEX 01 00:14:00
  TRACK 21 AUDIO
    TITLE "0:"
    INDEX 01 00:15:03
  TRACK 22 AUDIO
    TITLE "3:cjc102_0544"
    INDEX 01 00:16:18
  TRACK 23 AUDIO
    TITLE "0:"
    INDEX 01 00:17:12
  TRACK 24 AUDIO
    TITLE "2:cjc102_0545"
    INDEX 01 00:17:23
  TRACK 25 AUDIO
    TITLE "0:"
    INDEX 01 00:18:48
  TRACK 26 AUDIO
    TITLE "3:cjc102_0546"
    INDEX 01 00:19:60
  TRACK 27 AUDIO
    TITLE "0:"
    INDEX 01 00:20:51
  TRACK 28 AUDIO
    TITLE "2:cjc102_0547"
    INDEX 01 00:21:04
  TRACK 29 AUDIO
    TITLE "0:"
    INDEX 01 00:22:19
  TRACK 30 AUDIO
    TITLE "3:cjc102_0548"
    INDEX 01 00:23:16
  TRACK 31 AUDIO
    TITLE "0:"
    INDEX 01 00:24:12
  TRACK 32 AUDIO
    TITLE "2:cjc102_0549"
    INDEX 01 00:24:29
  TRACK 33 AUDIO
    TITLE "0:"
    INDEX 01 00:25:37
  TRACK 34 AUDIO
    TITLE "3:cjc102_0550"
    INDEX 01 00:26:54
  TRACK 35 AUDIO
    TITLE "0:"
    INDEX 01 00:27:43
  TRACK 36 AUDIO
    TITLE "2:cjc102_0551"
    INDEX 01 00:27:65
  TRACK 37 AUDIO
    TITLE "0:"
    INDEX 01 00:29:09
  TRACK 38 AUDIO
    TITLE "3:cjc102_0552"
    INDEX 01 00:30:03
  TRACK 39 AUDIO
    TITLE "0:"
    INDEX 01 00:30:73
  TRACK 40 AUDIO
    TITLE "2:cjc102_0553"
    INDEX 01 00:31:18
  TRACK 41 AUDIO
    TITLE "0:"
    INDEX 01 00:32:21
  TRACK 42 AUDIO
    TITLE "3:cjc102_0554"
    INDEX 01 00:33:30
  TRACK 43 AUDIO
    TITLE "0:"
    INDEX 01 00:34:49
  TRACK 44 AUDIO
    TITLE "2:cjc102_0555"
    INDEX 01 00:35:06
  TRACK 45 AUDIO
    TITLE "0:"
    INDEX 01 00:36:19
  TRACK 46 AUDIO
    TITLE "2:cjc102_0556"
    INDEX 01 00:36:50
  TRACK 47 AUDIO
    TITLE "0:"
    INDEX 01 00:37:63
  TRACK 48 AUDIO
    TITLE "3:cjc102_0557"
    INDEX 01 00:38:57
  TRACK 49 AUDIO
    TITLE "0:"
    INDEX 01 00:39:60
  TRACK 50 AUDIO
    TITLE "2:cjc102_0558"
    INDEX 01 00:40:15
  TRACK 51 AUDIO
    TITLE "0:"
    INDEX 01 00:41:34
  TRACK 52 AUDIO
    TITLE "2:cjc102_0559"
    INDEX 01 00:41:57
  TRACK 53 AUDIO
    TITLE "0:"
    INDEX 01 00:42:72
  TRACK 54 AUDIO
    TITLE "3:cjc102_0560"
    INDEX 01 00:43:62
  TRACK 55 AUDIO
    TITLE "0:"
    INDEX 01 00:45:00
  TRACK 56 AUDIO
    TITLE "2:cjc102_0561"
    INDEX 01 00:45:33
  TRACK 57 AUDIO
    TITLE "0:"
    INDEX 01 00:46:49
  TRACK 58 AUDIO
    TITLE "2:cjc102_0562"
    INDEX 01 00:46:70
  TRACK 59 AUDIO
    TITLE "0:"
    INDEX 01 00:48:06
